<mxfile host="app.diagrams.net" modified="2022-06-06T04:58:47.126Z" agent="5.0 (X11)" etag="6b6WQuv9KH7NPCL-0SIf" version="18.2.0" type="github">
  <diagram id="EPDMe7osWFxEO5D-z5a8" name="第 1 页">
    <mxGraphModel dx="1038" dy="531" grid="1" gridSize="10" guides="1" tooltips="1" connect="1" arrows="1" fold="1" page="1" pageScale="1" pageWidth="827" pageHeight="1169" math="0" shadow="0">
      <root>
        <mxCell id="0" />
        <mxCell id="1" parent="0" />
        <mxCell id="R9aFtLjfg68O0OHQiqpN-1" value="1" style="ellipse;whiteSpace=wrap;html=1;aspect=fixed;fontSize=12;" vertex="1" parent="1">
          <mxGeometry x="280" y="480" width="40" height="40" as="geometry" />
        </mxCell>
        <mxCell id="R9aFtLjfg68O0OHQiqpN-2" value="1" style="ellipse;whiteSpace=wrap;html=1;aspect=fixed;fontSize=12;" vertex="1" parent="1">
          <mxGeometry x="360" y="480" width="40" height="40" as="geometry" />
        </mxCell>
        <mxCell id="R9aFtLjfg68O0OHQiqpN-6" style="rounded=0;orthogonalLoop=1;jettySize=auto;html=1;exitX=0;exitY=1;exitDx=0;exitDy=0;fontSize=12;" edge="1" parent="1" source="R9aFtLjfg68O0OHQiqpN-4" target="R9aFtLjfg68O0OHQiqpN-1">
          <mxGeometry relative="1" as="geometry" />
        </mxCell>
        <mxCell id="R9aFtLjfg68O0OHQiqpN-7" style="edgeStyle=none;rounded=0;orthogonalLoop=1;jettySize=auto;html=1;exitX=1;exitY=1;exitDx=0;exitDy=0;fontSize=12;" edge="1" parent="1" source="R9aFtLjfg68O0OHQiqpN-4" target="R9aFtLjfg68O0OHQiqpN-2">
          <mxGeometry relative="1" as="geometry" />
        </mxCell>
        <mxCell id="R9aFtLjfg68O0OHQiqpN-4" value="+" style="ellipse;whiteSpace=wrap;html=1;aspect=fixed;fontSize=12;" vertex="1" parent="1">
          <mxGeometry x="320" y="400" width="40" height="40" as="geometry" />
        </mxCell>
        <mxCell id="R9aFtLjfg68O0OHQiqpN-8" value="7" style="ellipse;whiteSpace=wrap;html=1;aspect=fixed;fontSize=12;" vertex="1" parent="1">
          <mxGeometry x="240" y="400" width="40" height="40" as="geometry" />
        </mxCell>
        <mxCell id="R9aFtLjfg68O0OHQiqpN-10" style="edgeStyle=none;rounded=0;orthogonalLoop=1;jettySize=auto;html=1;exitX=0;exitY=1;exitDx=0;exitDy=0;fontSize=12;" edge="1" parent="1" source="R9aFtLjfg68O0OHQiqpN-9" target="R9aFtLjfg68O0OHQiqpN-8">
          <mxGeometry relative="1" as="geometry" />
        </mxCell>
        <mxCell id="R9aFtLjfg68O0OHQiqpN-11" style="edgeStyle=none;rounded=0;orthogonalLoop=1;jettySize=auto;html=1;exitX=1;exitY=1;exitDx=0;exitDy=0;fontSize=12;" edge="1" parent="1" source="R9aFtLjfg68O0OHQiqpN-9" target="R9aFtLjfg68O0OHQiqpN-4">
          <mxGeometry relative="1" as="geometry" />
        </mxCell>
        <mxCell id="R9aFtLjfg68O0OHQiqpN-9" value="-" style="ellipse;whiteSpace=wrap;html=1;aspect=fixed;fontSize=12;" vertex="1" parent="1">
          <mxGeometry x="280" y="320" width="40" height="40" as="geometry" />
        </mxCell>
        <mxCell id="R9aFtLjfg68O0OHQiqpN-12" value="15" style="ellipse;whiteSpace=wrap;html=1;aspect=fixed;fontSize=12;" vertex="1" parent="1">
          <mxGeometry x="200" y="320" width="40" height="40" as="geometry" />
        </mxCell>
        <mxCell id="R9aFtLjfg68O0OHQiqpN-14" style="edgeStyle=none;rounded=0;orthogonalLoop=1;jettySize=auto;html=1;exitX=0;exitY=1;exitDx=0;exitDy=0;fontSize=12;" edge="1" parent="1" source="R9aFtLjfg68O0OHQiqpN-13" target="R9aFtLjfg68O0OHQiqpN-12">
          <mxGeometry relative="1" as="geometry" />
        </mxCell>
        <mxCell id="R9aFtLjfg68O0OHQiqpN-15" style="edgeStyle=none;rounded=0;orthogonalLoop=1;jettySize=auto;html=1;exitX=1;exitY=1;exitDx=0;exitDy=0;fontSize=12;" edge="1" parent="1" source="R9aFtLjfg68O0OHQiqpN-13" target="R9aFtLjfg68O0OHQiqpN-9">
          <mxGeometry relative="1" as="geometry" />
        </mxCell>
        <mxCell id="R9aFtLjfg68O0OHQiqpN-13" value="/" style="ellipse;whiteSpace=wrap;html=1;aspect=fixed;fontSize=12;" vertex="1" parent="1">
          <mxGeometry x="240" y="240" width="40" height="40" as="geometry" />
        </mxCell>
        <mxCell id="R9aFtLjfg68O0OHQiqpN-16" value="3" style="ellipse;whiteSpace=wrap;html=1;aspect=fixed;fontSize=12;" vertex="1" parent="1">
          <mxGeometry x="320" y="240" width="40" height="40" as="geometry" />
        </mxCell>
        <mxCell id="R9aFtLjfg68O0OHQiqpN-18" style="edgeStyle=none;rounded=0;orthogonalLoop=1;jettySize=auto;html=1;exitX=0;exitY=1;exitDx=0;exitDy=0;fontSize=12;" edge="1" parent="1" source="R9aFtLjfg68O0OHQiqpN-17" target="R9aFtLjfg68O0OHQiqpN-13">
          <mxGeometry relative="1" as="geometry" />
        </mxCell>
        <mxCell id="R9aFtLjfg68O0OHQiqpN-19" style="edgeStyle=none;rounded=0;orthogonalLoop=1;jettySize=auto;html=1;exitX=1;exitY=1;exitDx=0;exitDy=0;fontSize=12;" edge="1" parent="1" source="R9aFtLjfg68O0OHQiqpN-17" target="R9aFtLjfg68O0OHQiqpN-16">
          <mxGeometry relative="1" as="geometry" />
        </mxCell>
        <mxCell id="R9aFtLjfg68O0OHQiqpN-17" value="*" style="ellipse;whiteSpace=wrap;html=1;aspect=fixed;fontSize=12;" vertex="1" parent="1">
          <mxGeometry x="280" y="160" width="40" height="40" as="geometry" />
        </mxCell>
        <mxCell id="R9aFtLjfg68O0OHQiqpN-21" style="edgeStyle=none;rounded=0;orthogonalLoop=1;jettySize=auto;html=1;exitX=0;exitY=1;exitDx=0;exitDy=0;fontSize=12;" edge="1" parent="1" source="R9aFtLjfg68O0OHQiqpN-20" target="R9aFtLjfg68O0OHQiqpN-17">
          <mxGeometry relative="1" as="geometry" />
        </mxCell>
        <mxCell id="R9aFtLjfg68O0OHQiqpN-29" style="edgeStyle=none;rounded=0;orthogonalLoop=1;jettySize=auto;html=1;exitX=1;exitY=1;exitDx=0;exitDy=0;fontSize=12;" edge="1" parent="1" source="R9aFtLjfg68O0OHQiqpN-20" target="R9aFtLjfg68O0OHQiqpN-28">
          <mxGeometry relative="1" as="geometry" />
        </mxCell>
        <mxCell id="R9aFtLjfg68O0OHQiqpN-20" value="-" style="ellipse;whiteSpace=wrap;html=1;aspect=fixed;fontSize=12;" vertex="1" parent="1">
          <mxGeometry x="360" y="80" width="40" height="40" as="geometry" />
        </mxCell>
        <mxCell id="R9aFtLjfg68O0OHQiqpN-25" style="edgeStyle=none;rounded=0;orthogonalLoop=1;jettySize=auto;html=1;exitX=0;exitY=1;exitDx=0;exitDy=0;fontSize=12;" edge="1" parent="1" source="R9aFtLjfg68O0OHQiqpN-22" target="R9aFtLjfg68O0OHQiqpN-23">
          <mxGeometry relative="1" as="geometry" />
        </mxCell>
        <mxCell id="R9aFtLjfg68O0OHQiqpN-26" style="edgeStyle=none;rounded=0;orthogonalLoop=1;jettySize=auto;html=1;exitX=1;exitY=1;exitDx=0;exitDy=0;fontSize=12;" edge="1" parent="1" source="R9aFtLjfg68O0OHQiqpN-22" target="R9aFtLjfg68O0OHQiqpN-24">
          <mxGeometry relative="1" as="geometry" />
        </mxCell>
        <mxCell id="R9aFtLjfg68O0OHQiqpN-22" value="+" style="ellipse;whiteSpace=wrap;html=1;aspect=fixed;fontSize=12;" vertex="1" parent="1">
          <mxGeometry x="480" y="240" width="40" height="40" as="geometry" />
        </mxCell>
        <mxCell id="R9aFtLjfg68O0OHQiqpN-23" value="1" style="ellipse;whiteSpace=wrap;html=1;aspect=fixed;fontSize=12;" vertex="1" parent="1">
          <mxGeometry x="440" y="320" width="40" height="40" as="geometry" />
        </mxCell>
        <mxCell id="R9aFtLjfg68O0OHQiqpN-24" value="1" style="ellipse;whiteSpace=wrap;html=1;aspect=fixed;fontSize=12;" vertex="1" parent="1">
          <mxGeometry x="520" y="320" width="40" height="40" as="geometry" />
        </mxCell>
        <mxCell id="R9aFtLjfg68O0OHQiqpN-27" value="2" style="ellipse;whiteSpace=wrap;html=1;aspect=fixed;fontSize=12;" vertex="1" parent="1">
          <mxGeometry x="400" y="240" width="40" height="40" as="geometry" />
        </mxCell>
        <mxCell id="R9aFtLjfg68O0OHQiqpN-30" style="edgeStyle=none;rounded=0;orthogonalLoop=1;jettySize=auto;html=1;exitX=0;exitY=1;exitDx=0;exitDy=0;fontSize=12;" edge="1" parent="1" source="R9aFtLjfg68O0OHQiqpN-28" target="R9aFtLjfg68O0OHQiqpN-27">
          <mxGeometry relative="1" as="geometry" />
        </mxCell>
        <mxCell id="R9aFtLjfg68O0OHQiqpN-31" style="edgeStyle=none;rounded=0;orthogonalLoop=1;jettySize=auto;html=1;exitX=1;exitY=1;exitDx=0;exitDy=0;fontSize=12;" edge="1" parent="1" source="R9aFtLjfg68O0OHQiqpN-28" target="R9aFtLjfg68O0OHQiqpN-22">
          <mxGeometry relative="1" as="geometry" />
        </mxCell>
        <mxCell id="R9aFtLjfg68O0OHQiqpN-28" value="+" style="ellipse;whiteSpace=wrap;html=1;aspect=fixed;fontSize=12;" vertex="1" parent="1">
          <mxGeometry x="440" y="160" width="40" height="40" as="geometry" />
        </mxCell>
      </root>
    </mxGraphModel>
  </diagram>
</mxfile>
